<svg xmlns="http://www.w3.org/2000/svg" viewBox="0 0 823 169" width="823" height="169">
<path d="M 21.275 16.795 C 19.140 17.119, 19.287 17.602, 24.931 28.816 C 28.164 35.242, 37.600 53.550, 45.899 69.500 L 60.987 98.500 60.994 125.750 L 61 153 74.500 153 L 88 153 88 125.910 L 88 98.820 102.130 72.660 C 109.902 58.272, 116.607 46.050, 117.030 45.500 C 117.916 44.347, 133 16.869, 133 16.407 C 133 16.239, 126.506 16.112, 118.569 16.125 L 104.138 16.149 89.870 43.576 C 82 58.705, 75.220 70.620, 74.750 70.150 C 73.713 69.113, 48 18.866, 48 17.877 C 48 16.238, 29.793 15.501, 21.275 16.795 M 134.570 28.946 C 130.957 35.517, 128 41.142, 128 41.446 C 128 41.751, 135.035 42, 143.634 42 C 161.673 42, 165.384 42.825, 171.483 48.194 C 177.330 53.341, 179.438 58.958, 178.748 67.556 C 178.026 76.540, 174.357 82.425, 167.120 86.206 C 162.139 88.808, 160.955 89, 149.886 89 L 138 89 137.931 98.750 C 137.893 104.112, 137.699 109.737, 137.499 111.250 L 137.136 114 151.979 114 C 168.726 114, 175.326 112.566, 183.900 107.064 C 201.339 95.874, 209.153 75.549, 204.486 53.517 C 202.556 44.405, 199.107 37.513, 193.602 31.767 C 187.755 25.665, 182.666 22.545, 173.592 19.499 C 167.231 17.364, 164.327 17, 153.644 17 L 141.140 17 134.570 28.946 M 140.012 55.548 C 135.349 59.647, 131.189 63, 130.767 63 C 130.345 63, 130 60.075, 130 56.500 L 130 50 126.250 50.008 C 122.875 50.016, 122.267 50.441, 120.174 54.258 C 103.564 84.550, 102 87.860, 102 92.738 L 102 97.612 108.750 97.588 C 117.516 97.558, 122.951 100.276, 127.052 106.742 L 130 111.392 130.021 90.946 L 130.043 70.500 133.842 67.814 C 135.931 66.337, 140.016 62.993, 142.920 60.382 C 146.684 56.998, 148.578 55.903, 149.521 56.568 C 150.247 57.081, 154.191 60.538, 158.284 64.250 C 165.621 70.905, 168.193 72.014, 172.473 70.372 C 173.802 69.862, 173.555 69.407, 171.151 67.946 C 169.524 66.956, 164.887 63.096, 160.847 59.368 C 156.806 55.639, 152.373 51.578, 150.995 50.342 L 148.490 48.096 140.012 55.548 M 477.667 55.667 C 477.300 56.033, 477 70.658, 477 88.167 L 477 120 481.861 120 L 486.721 120 487.307 115.055 C 487.629 112.335, 487.632 107.001, 487.314 103.202 L 486.735 96.295 493.194 95.777 C 505.776 94.767, 511.172 89.643, 511.825 78.087 C 512.780 61.185, 505.759 55, 485.617 55 C 481.611 55, 478.033 55.300, 477.667 55.667 M 520.839 65.631 C 520.750 71.609, 520.637 86.368, 520.589 98.429 L 520.500 120.358 525.556 120.739 L 530.613 121.120 530.556 107.310 C 530.500 93.531, 530.505 93.499, 532.865 93.165 C 534.166 92.981, 535.714 93.314, 536.305 93.905 C 536.896 94.496, 539.462 100.722, 542.007 107.740 L 546.633 120.500 551.817 120.802 C 554.668 120.969, 557 120.942, 557 120.743 C 557 120.544, 554.927 114.783, 552.392 107.941 C 546.369 91.677, 546.322 91.433, 548.985 90.008 C 552.239 88.266, 554.953 81.387, 554.978 74.815 C 555.003 68.325, 553.814 64.531, 550.683 61.121 C 547.297 57.431, 543.380 56.265, 531.750 55.484 L 521 54.761 520.839 65.631 M 573.180 56.626 C 571.353 57.557, 568.653 59.898, 567.180 61.828 L 564.500 65.338 564.195 86.651 C 563.919 105.944, 564.073 108.377, 565.823 112.333 C 568.263 117.850, 574.100 121, 581.881 121 C 587.644 121, 590.121 120.041, 594.212 116.227 C 598.312 112.404, 599.235 106.179, 598.843 85 C 598.463 64.505, 597.858 62.171, 591.808 57.863 C 587.545 54.828, 577.959 54.191, 573.180 56.626 M 610 87.850 L 610 121 615 121 L 620 121 620 108 L 620 95 626.852 95 C 639.014 95, 644.561 88.999, 644.416 76 C 644.309 66.370, 642.236 61.808, 636.418 58.399 C 632.747 56.248, 630.431 55.778, 621.048 55.283 L 610 54.700 610 87.850 M 659.250 55.758 L 653 56.095 653 88.574 L 653 121.052 668.250 120.776 L 683.500 120.500 683.383 116.716 C 683.319 114.635, 682.944 112.610, 682.550 112.216 C 682.157 111.822, 677.709 111.406, 672.667 111.291 L 663.500 111.083 663.214 101.541 L 662.928 92 670.964 92 L 679 92 679 87.500 L 679 83 671 83 L 663 83 663 74 L 663 65 673 65 L 683 65 682.997 60.250 L 682.994 55.500 674.247 55.460 C 669.436 55.438, 662.688 55.572, 659.250 55.758 M 691.750 55.548 C 691.337 55.980, 691 70.883, 691 88.667 L 691 121 696 121 L 701 121 701 107 L 701 93 704.328 93 L 707.655 93 712.620 106.750 L 717.584 120.500 722.921 120.807 C 727.726 121.083, 728.186 120.934, 727.538 119.307 C 727.142 118.313, 725.512 113.831, 723.915 109.346 C 722.318 104.862, 720.147 99.176, 719.090 96.711 L 717.169 92.229 720.566 88.936 C 725.008 84.630, 726.372 80.221, 725.731 72.235 C 724.786 60.459, 719.217 56.351, 702.883 55.380 C 697.173 55.040, 692.163 55.116, 691.750 55.548 M 732.181 55.853 C 731.356 56.385, 730.981 58.164, 731.181 60.602 L 731.500 64.500 737.250 64.800 L 743 65.100 743.054 71.800 C 743.083 75.485, 743.060 88.063, 743.003 99.750 L 742.898 121 748.449 121 L 754 121 754 93 L 754 65 760.055 65 L 766.110 65 765.805 60.250 L 765.500 55.500 749.500 55.252 C 740.700 55.115, 732.906 55.386, 732.181 55.853 M 797.466 58.500 C 796.791 60.150, 794.723 65.885, 792.870 71.245 C 791.016 76.605, 789.217 80.992, 788.872 80.995 C 788.526 80.998, 786.298 75.375, 783.921 68.500 L 779.598 56 774.799 56 C 772.160 56, 770 56.213, 770 56.472 C 770 56.732, 772.949 65.170, 776.554 75.222 C 782.591 92.056, 783.106 94.132, 783.076 101.500 C 783.058 105.900, 783.303 112.087, 783.620 115.250 L 784.196 121 789.098 121 L 794 121 794 107.526 C 794 94.813, 794.174 93.613, 797.090 86.276 C 801.789 74.448, 808 57.370, 808 56.275 C 808 55.739, 805.906 55.345, 803.346 55.400 C 799.154 55.490, 798.570 55.798, 797.466 58.500 M 531 74.386 L 531 85 534.944 85 C 537.650 85, 539.752 84.257, 541.639 82.634 C 544.013 80.592, 544.397 79.502, 544.445 74.664 C 544.513 67.748, 542.552 65.447, 535.750 64.461 L 531 63.773 531 74.386 M 576.039 66.189 C 574.134 68.233, 574 69.637, 574 87.554 C 574 105.440, 574.139 106.908, 576.073 109.365 C 578.700 112.706, 583.814 112.968, 586.586 109.905 C 588.324 107.985, 588.469 106.155, 588.340 87.844 C 588.216 70.337, 587.983 67.639, 586.445 65.939 C 584.019 63.259, 578.648 63.388, 576.039 66.189 M 701.338 65.562 C 701.106 66.165, 701.048 70.673, 701.209 75.579 L 701.500 84.500 704.869 84.822 C 710.275 85.339, 713.825 83.316, 715.125 78.977 C 716.482 74.447, 715.617 68.856, 713.230 66.740 C 711.143 64.889, 701.946 63.978, 701.338 65.562 M 487 70.860 C 487 74.084, 487.286 78.809, 487.636 81.360 L 488.272 86 492.981 86 C 499.254 86, 501.245 83.787, 501.787 76.213 C 502.126 71.475, 501.825 70.030, 500.025 67.750 C 498.135 65.354, 497.155 65, 492.427 65 L 487 65 487 70.860 M 620 75.500 L 620 86 624.750 85.985 C 627.362 85.976, 629.995 85.639, 630.600 85.235 C 632.785 83.776, 634 80.029, 634 74.754 C 634 67.419, 631.758 65, 624.961 65 L 620 65 620 75.500 M 142.607 68.582 C 141.555 71.324, 141.929 72, 144.500 72 C 146.500 72, 147 71.500, 147 69.500 C 147 66.624, 143.629 65.919, 142.607 68.582 M 149 69.500 C 149 71.500, 149.500 72, 151.500 72 C 153.500 72, 154 71.500, 154 69.500 C 154 67.500, 153.500 67, 151.500 67 C 149.500 67, 149 67.500, 149 69.500 M 142.450 73.883 C 142.203 74.131, 142 75.383, 142 76.667 C 142 78.489, 142.548 79, 144.500 79 C 146.599 79, 147 78.529, 147 76.062 C 147 73.717, 146.587 73.155, 144.950 73.279 C 143.823 73.364, 142.698 73.636, 142.450 73.883 M 151.250 73.706 C 147.855 74.360, 148.074 79, 151.500 79 C 153.611 79, 154 78.533, 154 76 C 154 74.350, 153.887 73.061, 153.750 73.136 C 153.613 73.211, 152.488 73.467, 151.250 73.706 M 102.500 103.412 C 93.909 107.230, 90.643 117.290, 95.072 126.290 C 97.372 130.962, 109.213 148.963, 110 148.984 C 110.275 148.991, 111.175 147.896, 112 146.551 C 112.825 145.206, 116.187 140.230, 119.471 135.493 C 125.121 127.343, 125.458 126.523, 125.760 120.191 C 126.142 112.181, 123.604 106.828, 118.016 103.854 C 113.955 101.693, 106.824 101.490, 102.500 103.412 M 104.825 111.038 C 103.904 111.576, 102.640 113.559, 102.018 115.446 C 100.615 119.697, 102.482 123.987, 106.540 125.836 C 114.599 129.508, 121.840 118.749, 115.545 112.455 C 112.952 109.861, 107.971 109.203, 104.825 111.038 M 127.723 129.329 C 126.746 131.706, 124.366 136.092, 122.436 139.075 C 119.261 143.980, 119.088 144.596, 120.633 145.500 C 121.573 146.050, 124.065 148.015, 126.171 149.866 L 130 153.233 130 139.116 C 130 131.352, 129.887 125.002, 129.750 125.004 C 129.613 125.006, 128.700 126.952, 127.723 129.329 M 117.778 149.233 C 123.082 151.789, 116.341 154.393, 106.935 153.421 C 99.768 152.681, 97.613 151.476, 101.024 150.115 C 102.386 149.571, 102.908 149.098, 102.184 149.063 C 100.293 148.972, 97 150.892, 97 152.086 C 97 155.338, 112.959 157.305, 119.851 154.902 C 123.703 153.559, 123.995 150.774, 120.453 149.161 C 117.223 147.689, 114.714 147.757, 117.778 149.233" stroke="none" fill="#3DFF00" fill-rule="evenodd"/>
<path d="M 427.749 55.206 C 422.593 56.571, 418.403 60.788, 416.991 66.034 C 414.574 75.011, 417.777 82.385, 427.073 89.240 C 438.140 97.402, 440 99.530, 440 104.028 C 440 106.667, 439.329 108.671, 438 110 C 436.011 111.989, 431.500 112.637, 429.400 111.235 C 427.753 110.135, 426 106.411, 426 104.011 C 426 102.105, 425.519 101.921, 421.250 102.195 C 416.720 102.486, 416.486 102.647, 416.192 105.676 C 415.823 109.481, 419.119 116.390, 422.263 118.404 C 426.291 120.985, 432.536 122.114, 437.103 121.088 C 445.612 119.176, 450.254 112.920, 450.141 103.514 C 450.055 96.299, 448.077 92.787, 441.240 87.708 C 438.125 85.394, 433.646 81.647, 431.288 79.382 C 427.618 75.856, 427 74.678, 427 71.203 C 427 66.428, 428.995 64, 432.916 64 C 436.109 64, 438.545 66.302, 439.530 70.250 C 440.162 72.782, 440.605 73, 445.108 73 C 449.749 73, 450 72.862, 450 70.316 C 450 68.839, 449.053 65.674, 447.895 63.282 C 444.649 56.579, 435.863 53.056, 427.749 55.206 M 402.750 55.805 L 398 56.110 398 60.555 C 398 64.333, 398.300 65, 400 65 C 402.338 65, 402.490 66.519, 400.500 70 C 398.938 72.733, 398.519 77, 399.813 77 C 401.341 77, 405.892 71.505, 407.447 67.782 C 409.059 63.924, 409.353 59.590, 408.180 57 C 407.683 55.904, 406.222 55.582, 402.750 55.805 M 225.529 58.195 C 225.913 59.463, 229.101 68.121, 232.613 77.435 L 239 94.371 239 107.685 L 239 121 244 121 L 249 121 249 107.724 L 249 94.448 256.500 75.731 C 260.625 65.437, 264 56.786, 264 56.507 C 264 56.228, 261.592 56, 258.648 56 L 253.297 56 249.025 68.543 C 246.675 75.442, 244.516 80.849, 244.226 80.560 C 243.937 80.270, 241.855 74.738, 239.600 68.266 L 235.500 56.500 230.165 56.195 C 225.005 55.900, 224.853 55.965, 225.529 58.195 M 270 88.552 L 270 121.105 275.250 120.802 L 280.500 120.500 280.500 106.001 L 280.500 91.502 287.250 91.481 L 294 91.461 294 106.283 L 294 121.105 299.112 120.802 L 304.223 120.500 304.126 93 C 304.072 77.875, 304.022 63.362, 304.014 60.750 L 304 56 299 56 L 294 56 294 69.546 L 294 83.091 287.250 82.796 L 280.500 82.500 280.221 69.250 L 279.942 56 274.971 56 L 270 56 270 88.552 M 315.236 88.250 L 315.500 120.500 330.271 120.777 C 346.696 121.085, 346.794 121.045, 345.565 114.492 L 344.909 111 335.455 111 L 326 111 326 101.500 L 326 92 333.500 92 L 341 92 341 87.500 L 341 83 333.500 83 L 326 83 326 74 L 326 65 336.107 65 C 344.912 65, 346.136 64.796, 345.607 63.418 C 345.273 62.548, 345 60.523, 345 58.918 L 345 56 329.986 56 L 314.972 56 315.236 88.250 M 353 88.500 L 353 121 358 121 L 363 121 363 100.800 C 363 88.008, 363.349 80.949, 363.952 81.552 C 364.476 82.076, 368.220 91.054, 372.273 101.502 L 379.641 120.500 384.321 120.805 L 389 121.110 389 88.555 L 389 56 384 56 L 379 56 378.968 75.250 C 378.943 90.602, 378.690 94.174, 377.718 92.888 C 377.048 92.002, 373.575 83.346, 370 73.652 L 363.500 56.028 358.250 56.014 L 353 56 353 88.500" stroke="none" fill="#000000" fill-rule="evenodd"/>
</svg>