<svg xmlns="http://www.w3.org/2000/svg" width="1200" height="1200" viewBox="0 0 1200 1200" version="1.1">
	<path d="M 243.500 282.902 L 210.500 283.500 210.170 286.396 C 209.972 288.126, 210.612 290.339, 211.762 291.896 C 212.819 293.328, 214.238 296.181, 214.915 298.236 C 215.592 300.291, 216.551 302.222, 217.046 302.528 C 217.541 302.834, 218.425 304.865, 219.011 307.042 C 219.598 309.219, 220.475 311, 220.961 311 C 221.447 311, 222.395 312.688, 223.068 314.750 C 223.741 316.813, 225.094 319.534, 226.076 320.797 C 227.058 322.060, 228.152 324.418, 228.508 326.035 C 228.863 327.653, 229.606 329.257, 230.160 329.599 C 230.713 329.941, 232.023 332.083, 233.070 334.360 C 234.118 336.637, 235.431 339.175, 235.988 340 C 236.545 340.825, 237.478 342.625, 238.061 344 C 238.644 345.375, 240.418 348.750, 242.003 351.500 C 243.588 354.250, 245.409 357.625, 246.049 359 C 246.690 360.375, 247.627 362.175, 248.132 363 C 248.637 363.825, 249.951 366.394, 251.053 368.709 C 252.155 371.023, 253.461 373.167, 253.956 373.473 C 254.450 373.778, 255.389 375.649, 256.043 377.630 C 256.697 379.611, 258.079 382.079, 259.116 383.116 C 260.152 384.152, 261 385.882, 261 386.961 C 261 388.040, 261.863 389.727, 262.919 390.711 C 263.974 391.695, 265.158 393.850, 265.550 395.500 C 265.942 397.150, 267.055 399.400, 268.023 400.500 C 268.992 401.600, 270.087 403.931, 270.456 405.681 C 270.826 407.430, 271.746 409.374, 272.500 410 C 273.254 410.626, 274.153 412.420, 274.497 413.987 C 274.841 415.554, 276.007 417.856, 277.089 419.102 C 278.170 420.349, 279.326 422.523, 279.658 423.934 C 279.991 425.345, 281.052 427.400, 282.016 428.500 C 282.981 429.600, 284.100 431.625, 284.503 433 C 284.907 434.375, 285.801 436.175, 286.492 437 C 287.182 437.825, 288.277 440.152, 288.925 442.170 C 289.572 444.189, 290.725 446.357, 291.487 446.989 C 292.248 447.621, 293.160 449.452, 293.513 451.058 C 293.865 452.663, 294.606 454.257, 295.160 454.599 C 295.713 454.941, 297.040 457.083, 298.108 459.360 C 299.881 463.139, 301.932 467.069, 304.182 471 C 304.654 471.825, 305.717 474.075, 306.544 476 C 307.372 477.925, 308.497 480.175, 309.044 481 C 309.592 481.825, 310.740 484.028, 311.594 485.896 C 312.449 487.763, 313.790 489.932, 314.573 490.716 C 315.356 491.499, 316.291 493.346, 316.651 494.820 C 317.010 496.294, 318.361 498.772, 319.652 500.327 C 320.943 501.881, 322 503.911, 322 504.836 C 322 505.762, 322.837 507.041, 323.859 507.680 C 324.882 508.318, 326.012 510.310, 326.371 512.105 C 326.730 513.900, 327.637 516.073, 328.385 516.934 C 329.134 517.795, 330.276 520.148, 330.922 522.162 C 331.568 524.175, 332.742 526.071, 333.530 526.373 C 334.319 526.676, 335.255 528.741, 335.610 530.962 C 335.965 533.183, 336.664 535, 337.163 535 C 337.663 535, 338.949 536.913, 340.023 539.250 C 341.096 541.587, 342.400 544.175, 342.920 545 C 344.680 547.795, 350 559.651, 350 560.779 C 350 561.396, 350.590 562.260, 351.312 562.700 C 352.033 563.140, 354.304 566.875, 356.358 571 C 358.412 575.125, 361.843 581.650, 363.983 585.500 C 366.123 589.350, 367.902 593.110, 367.937 593.856 C 367.972 594.601, 369.125 596.548, 370.500 598.182 C 371.875 599.816, 373 601.964, 373 602.954 C 373 603.945, 373.652 605.296, 374.449 605.958 C 375.246 606.619, 376.436 608.811, 377.094 610.830 C 377.752 612.848, 379.125 615.573, 380.145 616.885 C 381.165 618.197, 382 620.054, 382 621.012 C 382 621.971, 382.652 623.296, 383.449 623.958 C 384.246 624.619, 385.426 626.760, 386.071 628.716 C 386.717 630.672, 388.315 633.849, 389.622 635.776 C 390.930 637.703, 392 639.836, 392 640.517 C 392 641.198, 392.646 642.291, 393.436 642.947 C 394.225 643.602, 395.172 645.505, 395.539 647.177 C 395.906 648.848, 397.285 651.804, 398.603 653.747 C 399.921 655.690, 401 658.047, 401 658.986 C 401 659.925, 401.651 661.999, 402.446 663.596 C 403.678 666.072, 403.936 684.875, 404.196 791.167 C 404.363 859.734, 404.753 916.086, 405.061 916.395 C 405.839 917.173, 528.095 917.239, 528.872 916.462 C 529.217 916.116, 529.500 859.444, 529.500 790.523 C 529.500 678.571, 529.666 665.015, 531.057 663.356 C 531.913 662.335, 533.147 660.375, 533.799 659 C 534.452 657.625, 535.428 655.825, 535.968 655 C 536.509 654.175, 537.653 651.925, 538.511 650 C 540.256 646.086, 543.823 639.520, 547.476 633.500 C 548.811 631.300, 550.415 628.375, 551.040 627 C 551.665 625.625, 552.781 623.375, 553.521 622 C 554.260 620.625, 555.745 617.646, 556.819 615.379 C 557.894 613.113, 559.274 610.948, 559.887 610.570 C 560.499 610.192, 561 609.043, 561 608.018 C 561 606.992, 562.125 604.816, 563.500 603.182 C 564.875 601.548, 566 599.774, 566 599.241 C 566 598.707, 566.857 597.181, 567.904 595.850 C 568.951 594.519, 570.304 591.585, 570.911 589.331 C 571.518 587.077, 572.686 584.675, 573.507 583.994 C 574.328 583.313, 575 581.910, 575 580.878 C 575 579.845, 575.848 578.152, 576.884 577.116 C 577.921 576.079, 579.316 573.573, 579.985 571.546 C 580.654 569.519, 581.831 567.618, 582.601 567.323 C 583.370 567.028, 584 566.222, 584 565.533 C 584 564.843, 585.056 562.724, 586.346 560.823 C 587.636 558.921, 589.021 556.046, 589.424 554.433 C 589.826 552.820, 590.739 550.825, 591.451 550 C 592.164 549.175, 593.299 546.781, 593.974 544.680 C 594.649 542.579, 595.831 540.618, 596.601 540.323 C 597.370 540.028, 598 538.995, 598 538.028 C 598 537.061, 598.997 535.002, 600.216 533.452 C 601.435 531.902, 603.123 529.378, 603.966 527.843 C 608.973 518.731, 612 512.513, 612 511.340 C 612 510.603, 612.890 509.110, 613.977 508.023 C 615.064 506.936, 616.641 504.573, 617.480 502.773 C 618.319 500.973, 620.329 497.475, 621.946 495 C 625.101 490.170, 630.011 480.537, 632.012 475.250 C 632.689 473.462, 633.602 472, 634.042 472 C 634.481 472, 635.127 470.697, 635.477 469.104 C 635.827 467.511, 636.988 465.416, 638.057 464.449 C 639.126 463.481, 640 462.119, 640 461.422 C 640 460.724, 641.063 458.881, 642.363 457.327 C 643.663 455.772, 645.066 453.375, 645.481 452 C 645.897 450.625, 646.801 448.825, 647.492 448 C 648.182 447.175, 649.277 444.848, 649.925 442.830 C 650.572 440.811, 651.754 438.619, 652.551 437.958 C 653.348 437.296, 654 435.945, 654 434.954 C 654 433.964, 655.125 431.816, 656.500 430.182 C 657.875 428.548, 659 426.739, 659 426.162 C 659 425.585, 659.831 424.525, 660.847 423.807 C 661.863 423.088, 663.234 420.852, 663.895 418.838 C 664.556 416.825, 665.750 414.926, 666.548 414.620 C 667.347 414.313, 668 413.236, 668 412.226 C 668 411.215, 669.125 408.864, 670.500 407 C 671.875 405.136, 673 402.822, 673 401.857 C 673 400.892, 674.125 398.889, 675.500 397.405 C 676.875 395.922, 678 394.168, 678 393.509 C 678 392.850, 678.900 391.495, 680 390.500 C 681.100 389.505, 682 387.996, 682 387.149 C 682 385.768, 683.602 382.990, 689.016 374.981 C 689.952 373.595, 691.060 371.345, 691.478 369.981 C 691.895 368.616, 692.814 366.825, 693.519 366 C 694.224 365.175, 695.498 362.813, 696.349 360.750 C 697.201 358.688, 698.335 357, 698.870 357 C 699.404 357, 700.133 355.671, 700.490 354.047 C 700.846 352.423, 701.925 350.060, 702.887 348.797 C 703.848 347.534, 705.208 345.070, 705.909 343.322 C 706.610 341.574, 707.753 339.925, 708.449 339.658 C 709.146 339.391, 709.972 337.890, 710.286 336.322 C 710.599 334.755, 711.788 332.397, 712.928 331.083 C 714.067 329.769, 715 327.924, 715 326.982 C 715 326.040, 715.850 324.189, 716.889 322.868 C 717.928 321.547, 719.494 318.899, 720.369 316.983 C 721.244 315.067, 722.346 312.825, 722.818 312 C 725.119 307.981, 727.114 304.179, 728.590 301 C 729.484 299.075, 730.807 297.160, 731.529 296.744 C 732.252 296.328, 733.129 294.687, 733.479 293.098 C 733.828 291.508, 734.988 289.416, 736.057 288.449 C 737.126 287.481, 738 285.694, 738 284.477 L 738 282.265 672.534 282.560 C 611.046 282.837, 606.916 282.966, 604.559 284.677 C 603.179 285.680, 601.750 287.400, 601.384 288.500 C 601.017 289.600, 599.656 292.067, 598.359 293.982 C 597.061 295.897, 596 298.199, 596 299.097 C 596 299.995, 595.128 301.839, 594.062 303.194 C 592.996 304.549, 591.827 306.841, 591.464 308.288 C 591.101 309.734, 590.176 311.439, 589.409 312.075 C 588.642 312.712, 587.549 314.960, 586.981 317.071 C 586.412 319.183, 585.352 321.505, 584.625 322.233 C 583.897 322.960, 582.751 325.224, 582.078 327.264 C 581.405 329.303, 580.486 331.200, 580.036 331.478 C 579.586 331.756, 577.357 335.699, 575.082 340.242 C 572.808 344.784, 570.536 349.175, 570.033 350 C 569.531 350.825, 567.480 354.875, 565.474 359 C 563.469 363.125, 560.552 368.750, 558.992 371.500 C 557.432 374.250, 555.428 378.059, 554.539 379.963 C 553.651 381.868, 552.323 384.118, 551.588 384.963 C 550.854 385.809, 549.711 388.188, 549.049 390.250 C 548.387 392.313, 547.502 394, 547.083 394 C 546.663 394, 545.710 395.848, 544.965 398.106 C 544.220 400.365, 543.068 402.420, 542.406 402.674 C 541.745 402.928, 540.701 405.130, 540.087 407.568 C 539.473 410.006, 538.563 412, 538.063 412 C 537.564 412, 536.605 413.688, 535.932 415.750 C 535.259 417.813, 533.906 420.534, 532.924 421.797 C 531.942 423.060, 530.840 425.453, 530.475 427.115 C 530.110 428.776, 529.179 430.378, 528.406 430.675 C 527.633 430.971, 527 432.003, 527 432.967 C 527 433.932, 525.951 436.266, 524.669 438.155 C 523.387 440.044, 521.831 443.045, 521.211 444.825 C 520.591 446.604, 519.390 448.753, 518.542 449.601 C 517.694 450.449, 517 451.950, 517 452.937 C 517 453.923, 516.165 455.803, 515.145 457.115 C 514.125 458.427, 512.752 461.152, 512.094 463.170 C 511.436 465.189, 510.246 467.381, 509.449 468.042 C 508.652 468.704, 508 470.055, 508 471.046 C 508 472.036, 506.875 474.184, 505.500 475.818 C 504.125 477.452, 503 479.426, 503 480.206 C 503 480.985, 502.155 482.530, 501.122 483.638 C 500.090 484.747, 498.911 486.744, 498.504 488.077 C 498.097 489.410, 497.188 491.175, 496.485 492 C 495.180 493.532, 492.631 498.259, 489.129 505.640 C 488.049 507.917, 486.713 510.059, 486.160 510.401 C 485.606 510.743, 484.869 512.321, 484.520 513.908 C 484.172 515.494, 483.012 517.584, 481.943 518.551 C 480.874 519.519, 480 521.002, 480 521.847 C 480 522.692, 478.171 526.462, 475.936 530.225 L 471.871 537.066 468.045 534.035 C 465.940 532.368, 463.916 529.802, 463.547 528.331 C 463.178 526.861, 462.035 524.589, 461.007 523.282 C 459.979 521.975, 458.846 519.577, 458.490 517.953 C 458.133 516.329, 457.448 515, 456.967 515 C 456.487 515, 455.171 513.087, 454.043 510.750 C 452.915 508.413, 450.674 504.250, 449.062 501.500 C 447.450 498.750, 445.853 495.825, 445.511 495 C 445.170 494.175, 444.254 492.375, 443.476 491 C 442.698 489.625, 441.550 487.375, 440.924 486 C 440.298 484.625, 439.375 482.825, 438.873 482 C 438.371 481.175, 437.282 478.925, 436.455 477 C 435.627 475.075, 434.511 472.712, 433.975 471.750 C 433.439 470.788, 432.623 469.212, 432.162 468.250 C 431.701 467.288, 430.590 465.150, 429.693 463.500 C 428.796 461.850, 427.551 459.375, 426.927 458 C 423.500 450.446, 420.297 444.224, 418.750 442.115 C 417.788 440.803, 417 438.978, 417 438.059 C 417 437.140, 415.875 434.864, 414.500 433 C 413.125 431.136, 412 428.982, 412 428.213 C 412 427.445, 411.100 425.671, 410 424.273 C 408.900 422.874, 408 420.978, 408 420.059 C 408 419.140, 406.875 416.864, 405.500 415 C 404.125 413.136, 403 410.868, 403 409.959 C 403 409.050, 402.088 407.254, 400.973 405.969 C 399.858 404.683, 398.674 402.477, 398.342 401.066 C 398.009 399.655, 396.948 397.600, 395.984 396.500 C 395.019 395.400, 393.901 393.375, 393.500 392 C 393.099 390.625, 391.970 388.600, 390.993 387.500 C 390.016 386.400, 388.907 384.038, 388.529 382.250 C 388.150 380.462, 387.411 379, 386.885 379 C 386.359 379, 385.030 377.087, 383.930 374.750 C 382.831 372.413, 381.279 369.375, 380.481 368 C 379.683 366.625, 379.023 364.768, 379.015 363.872 C 379.007 362.977, 378.348 361.704, 377.551 361.042 C 376.754 360.381, 375.572 358.189, 374.925 356.170 C 374.277 354.152, 373.164 351.825, 372.451 351 C 371.739 350.175, 370.837 348.150, 370.447 346.500 C 370.057 344.850, 368.930 342.600, 367.943 341.500 C 366.956 340.400, 365.846 338.281, 365.476 336.791 C 365.106 335.301, 364.196 333.578, 363.453 332.961 C 362.710 332.344, 361.577 330.249, 360.935 328.304 C 360.294 326.360, 358.921 323.921, 357.884 322.884 C 356.848 321.848, 356 320.118, 356 319.039 C 356 317.960, 355.152 316.273, 354.116 315.289 C 353.081 314.305, 351.927 312.069, 351.552 310.319 C 351.178 308.570, 350.248 306.621, 349.487 305.989 C 348.725 305.357, 347.572 303.189, 346.925 301.170 C 346.277 299.152, 345.134 296.795, 344.385 295.934 C 343.637 295.073, 342.745 292.973, 342.404 291.268 C 342.062 289.562, 340.554 286.989, 339.051 285.549 L 336.319 282.932 306.410 282.618 C 289.959 282.445, 261.650 282.573, 243.500 282.902 M 781.239 284.725 C 779.995 284.954, 778.296 286.460, 777.463 288.071 C 776.630 289.682, 775.510 291, 774.974 291 C 774.438 291, 774 291.464, 774 292.032 C 774 293.424, 771.608 298.436, 768.049 304.500 C 766.435 307.250, 764.595 310.738, 763.960 312.250 C 763.324 313.762, 762.419 315, 761.949 315 C 761.479 315, 760.171 316.913, 759.043 319.250 C 757.915 321.587, 755.675 325.750, 754.066 328.500 C 752.456 331.250, 750.658 334.625, 750.070 336 C 749.482 337.375, 748.545 339.175, 747.988 340 C 747.431 340.825, 746.064 343.300, 744.951 345.500 C 743.838 347.700, 740.707 353.550, 737.993 358.500 C 735.279 363.450, 732.396 368.886, 731.587 370.580 C 730.778 372.273, 729.462 374.202, 728.662 374.865 C 727.863 375.529, 726.912 377.654, 726.549 379.588 C 726.187 381.522, 725.237 383.356, 724.439 383.662 C 723.641 383.968, 722.712 385.948, 722.374 388.063 C 722.036 390.178, 720.913 392.673, 719.880 393.609 C 718.846 394.545, 718 396.346, 718 397.612 L 718 399.914 790.750 400.207 C 857.270 400.475, 863.757 400.647, 866.500 402.213 C 868.150 403.155, 872.647 404.379, 876.493 404.934 C 880.401 405.498, 883.951 406.581, 884.542 407.389 C 885.124 408.184, 887.268 409.147, 889.308 409.530 C 891.348 409.913, 894.026 411.013, 895.259 411.975 C 896.491 412.938, 898.625 414.068, 900 414.487 C 901.375 414.905, 903.305 416.092, 904.289 417.124 C 905.273 418.156, 906.563 419, 907.157 419 C 907.750 419, 909.736 420.238, 911.568 421.750 C 913.401 423.262, 916.107 425.400, 917.581 426.500 C 921.572 429.478, 931.147 439.408, 934 443.528 C 935.375 445.513, 937.513 448.409, 938.750 449.963 C 939.987 451.517, 941 453.226, 941 453.759 C 941 454.293, 941.857 455.819, 942.904 457.150 C 943.951 458.481, 945.304 461.415, 945.911 463.669 C 946.518 465.923, 947.647 468.292, 948.420 468.934 C 949.194 469.576, 950.143 472.440, 950.530 475.300 C 950.918 478.160, 951.969 481.850, 952.867 483.500 C 955.239 487.859, 955.199 529.702, 952.818 535.097 C 951.944 537.076, 950.900 541.126, 950.496 544.097 C 950.092 547.069, 948.971 551.075, 948.003 553 C 947.036 554.925, 945.937 557.926, 945.561 559.668 C 945.185 561.410, 944.005 563.841, 942.939 565.071 C 941.872 566.300, 941 567.978, 941 568.800 C 941 571.767, 933.449 581.682, 924.568 590.376 C 912.610 602.081, 911.588 603, 910.529 603 C 910.034 603, 908.700 603.836, 907.564 604.858 C 903.737 608.304, 886.472 616.532, 881 617.518 C 879.075 617.865, 876.047 618.807, 874.271 619.611 C 868.668 622.149, 850.803 623.025, 807 622.910 L 764.500 622.799 763.299 625.118 C 762.579 626.508, 762.337 629.179, 762.695 631.792 C 763.023 634.188, 762.775 646.352, 762.142 658.824 C 761.510 671.296, 760.819 693.498, 760.606 708.162 C 760.221 734.717, 760.228 734.826, 762.360 735.398 C 766.013 736.379, 893.224 735.978, 897.500 734.973 C 899.700 734.455, 905.100 733.330, 909.500 732.472 C 913.900 731.614, 918.850 730.430, 920.500 729.840 C 922.150 729.250, 925.914 728.107, 928.864 727.300 C 931.814 726.492, 935.639 724.972, 937.364 723.920 C 939.089 722.868, 941.264 722.006, 942.197 722.004 C 943.130 722.002, 946.010 720.875, 948.596 719.500 C 951.182 718.125, 954.076 717, 955.026 717 C 955.977 717, 957.296 716.348, 957.958 715.551 C 958.619 714.754, 960.751 713.577, 962.696 712.935 C 964.640 712.294, 966.967 711.138, 967.866 710.367 C 973.981 705.123, 976.942 703, 978.141 703 C 978.899 703, 980.081 702.100, 980.768 701 C 981.455 699.900, 982.663 699, 983.452 699 C 984.241 699, 985.494 698.133, 986.236 697.073 C 986.979 696.013, 988.917 694.557, 990.543 693.838 C 992.169 693.119, 994.088 691.736, 994.807 690.765 C 995.525 689.794, 996.609 689, 997.216 689 C 997.822 689, 1000.159 687.059, 1002.409 684.686 C 1006.099 680.795, 1009.040 678.448, 1013.920 675.500 C 1016.726 673.805, 1025.092 664.667, 1026.738 661.500 C 1027.595 659.850, 1030.030 656.813, 1032.148 654.751 C 1034.267 652.689, 1036.008 650.664, 1036.018 650.251 C 1036.041 649.302, 1041.356 641.256, 1044.001 638.165 C 1045.101 636.881, 1046 635.263, 1046 634.570 C 1046 633.877, 1046.900 632.495, 1048 631.500 C 1049.100 630.505, 1050 629.172, 1050 628.539 C 1050 627.906, 1051.125 625.864, 1052.500 624 C 1053.875 622.136, 1055 619.860, 1055 618.941 C 1055 618.022, 1055.894 616.133, 1056.987 614.743 C 1058.080 613.354, 1059.461 609.947, 1060.056 607.174 C 1060.651 604.400, 1061.782 601.596, 1062.569 600.943 C 1063.356 600.290, 1064.010 598.798, 1064.022 597.628 C 1064.034 596.457, 1064.931 593.545, 1066.015 591.156 C 1067.100 588.766, 1068.423 584.100, 1068.957 580.785 C 1069.491 577.471, 1070.563 573.790, 1071.340 572.605 C 1072.116 571.419, 1073.068 567.536, 1073.455 563.975 C 1073.842 560.414, 1074.528 555.925, 1074.979 554 C 1075.430 552.075, 1076.078 549.263, 1076.419 547.750 C 1076.759 546.237, 1077.705 545, 1078.519 545 C 1079.796 545, 1080 540.653, 1080 513.500 C 1080 486.620, 1079.787 482, 1078.547 482 C 1076.506 482, 1075.088 476.296, 1074.026 463.813 C 1073.525 457.935, 1072.461 451.859, 1071.661 450.312 C 1070.861 448.764, 1069.877 444.798, 1069.474 441.499 C 1069.072 438.200, 1067.963 433.925, 1067.012 432 C 1066.060 430.075, 1064.972 426.487, 1064.593 424.026 C 1064.214 421.565, 1063.232 418.809, 1062.410 417.900 C 1061.587 416.991, 1060.640 414.505, 1060.304 412.374 C 1059.969 410.243, 1058.894 407.466, 1057.916 406.203 C 1056.938 404.940, 1055.853 402.608, 1055.505 401.022 C 1055.156 399.436, 1054.229 397.605, 1053.443 396.953 C 1052.657 396.301, 1051.544 394.019, 1050.969 391.884 C 1050.393 389.748, 1049.502 388, 1048.987 388 C 1048.472 388, 1047.302 386.538, 1046.387 384.750 C 1045.472 382.962, 1041.929 378.111, 1038.514 373.969 C 1035.099 369.827, 1031.826 365.552, 1031.242 364.469 C 1030.657 363.386, 1028.346 360.700, 1026.106 358.500 C 1023.866 356.300, 1022.026 353.938, 1022.017 353.250 C 1022.008 352.563, 1021.515 352, 1020.922 352 C 1020.328 352, 1018.084 350.169, 1015.934 347.931 C 1012.230 344.076, 1006.997 339.536, 1000.656 334.679 C 999.092 333.480, 996.791 331.488, 995.542 330.250 C 994.293 329.012, 992.785 328, 992.192 328 C 991.599 328, 990.525 327.190, 989.807 326.200 C 989.088 325.210, 987.038 323.805, 985.250 323.078 C 983.462 322.352, 982 321.368, 982 320.892 C 982 320.416, 980.538 319.326, 978.750 318.469 C 976.962 317.612, 973.250 315.607, 970.500 314.012 C 967.750 312.418, 964.825 310.814, 964 310.447 C 959.720 308.546, 951.026 304.601, 947.500 302.959 C 941.494 300.163, 932.277 297.066, 925.077 295.423 C 921.545 294.618, 918.131 293.523, 917.490 292.992 C 916.849 292.460, 912.783 291.532, 908.454 290.930 C 904.125 290.328, 899.426 289.237, 898.011 288.506 C 893.674 286.263, 867.443 284.862, 824.500 284.578 C 801.950 284.429, 782.483 284.495, 781.239 284.725 M 808.644 434.030 C 807.073 435.004, 802.398 438.883, 798.256 442.650 C 794.113 446.418, 790.318 449.656, 789.823 449.846 C 789.328 450.037, 786.962 452.062, 784.567 454.346 C 778.987 459.668, 770.513 467.291, 748.268 487 C 736.549 497.382, 733.712 499.531, 730.944 500.121 C 725.260 501.331, 725.217 501.123, 724.726 469.878 C 724.479 454.136, 724 440.810, 723.663 440.264 C 723.074 439.311, 697.228 439.550, 692.330 440.554 C 690.917 440.843, 689.937 442.010, 689.523 443.895 C 689.173 445.489, 688.012 447.584, 686.943 448.551 C 685.874 449.519, 685 451.080, 685 452.020 C 685 452.961, 684.102 454.872, 683.004 456.268 C 681.906 457.664, 680.664 459.637, 680.245 460.653 C 679.562 462.308, 677.238 466.321, 670.293 477.839 C 669.079 479.853, 667.172 483.300, 666.055 485.500 C 664.939 487.700, 663.569 490.175, 663.012 491 C 662.455 491.825, 661.550 493.625, 661.001 495 C 660.452 496.375, 658.665 499.750, 657.029 502.500 C 655.393 505.250, 653.393 508.886, 652.585 510.580 C 651.777 512.273, 650.443 514.217, 649.622 514.899 C 648.801 515.580, 647.846 517.426, 647.500 519 C 647.154 520.574, 646.248 522.379, 645.487 523.011 C 644.725 523.643, 643.572 525.811, 642.925 527.830 C 642.277 529.848, 641.107 532.234, 640.326 533.132 C 639.544 534.029, 638.455 536.392, 637.905 538.382 C 637.356 540.372, 636.498 542, 636 542 C 635.501 542, 634.169 543.913, 633.039 546.250 C 631.909 548.587, 628.766 554.550, 626.054 559.500 C 623.342 564.450, 620.371 570.188, 619.453 572.250 C 618.534 574.313, 617.426 576, 616.989 576 C 616.553 576, 615.696 577.433, 615.085 579.185 C 614.475 580.937, 613.357 583.074, 612.602 583.935 C 611.847 584.796, 609.515 588.875, 607.419 593 C 605.323 597.125, 603.074 601.175, 602.422 602 C 601.770 602.825, 600.905 604.625, 600.500 606 C 600.095 607.375, 599.159 609.191, 598.421 610.036 C 595.566 613.301, 593.274 623.368, 594.085 629.081 C 594.508 632.061, 594.903 640.350, 594.962 647.500 C 595.078 661.327, 596.374 666.664, 598.883 663.641 C 599.627 662.745, 602.804 661.878, 606.812 661.476 C 610.490 661.108, 615.428 660.175, 617.785 659.403 C 623.281 657.603, 636.223 657.600, 642.568 659.396 C 645.281 660.164, 650.169 661.078, 653.430 661.426 C 656.692 661.775, 660.742 662.892, 662.430 663.908 C 664.119 664.925, 667.173 666.054, 669.218 666.418 C 671.263 666.781, 673.560 667.702, 674.322 668.465 C 675.085 669.227, 677.237 670.576, 679.104 671.462 C 688.979 676.145, 697.808 682.998, 704.753 691.372 C 707.092 694.192, 709.653 697.187, 710.443 698.027 C 711.233 698.867, 712.346 700.779, 712.915 702.277 C 713.485 703.775, 714.363 705, 714.867 705 C 715.371 705, 716.529 706.688, 717.442 708.750 C 718.354 710.813, 719.746 713.625, 720.535 715 C 721.325 716.375, 721.977 718.261, 721.985 719.191 C 722.009 721.866, 723.887 722.322, 724.460 719.791 C 725.322 715.987, 725.397 684.213, 724.721 608.780 L 724.079 537.059 726.628 534.030 C 728.031 532.363, 729.742 531, 730.430 531 C 731.119 531, 732.767 530.087, 734.092 528.971 C 736.311 527.101, 742.300 522.381, 747.740 518.215 C 748.972 517.272, 751.054 515.600, 752.368 514.500 C 753.681 513.400, 756.207 511.375, 757.982 510 C 759.757 508.625, 761.725 507.050, 762.356 506.500 C 762.987 505.950, 765.752 503.704, 768.501 501.509 C 771.251 499.313, 776.516 494.476, 780.202 490.759 C 783.888 487.041, 787.375 484, 787.952 484 C 788.528 484, 789 483.582, 789 483.071 C 789 482.066, 790.516 480.502, 794.170 477.737 C 795.451 476.767, 799.216 473.771, 802.535 471.080 C 810.948 464.258, 813.519 464.070, 818.904 469.881 C 820.882 472.016, 824.525 475.438, 827 477.485 C 829.475 479.532, 834.675 484.198, 838.555 487.854 C 842.435 491.509, 847.769 496.300, 850.409 498.500 C 856.966 503.964, 858 504.995, 858 506.071 C 858 506.582, 858.547 507, 859.215 507 C 859.883 507, 861.345 507.871, 862.465 508.935 C 869.561 515.680, 878.985 523.944, 881.345 525.490 C 882.867 526.488, 885.423 529.207, 887.023 531.534 C 890.657 536.815, 893.886 537.458, 909.778 536.063 C 919.616 535.200, 921.479 534.736, 924.561 532.386 L 928.087 529.696 921.794 526.172 C 918.332 524.234, 915.347 522.268, 915.160 521.803 C 914.972 521.338, 913.397 520.234, 911.660 519.349 C 908.523 517.752, 907.014 516.572, 902.579 512.250 C 901.310 511.012, 899.841 510, 899.316 510 C 898.790 510, 897.411 508.988, 896.250 507.750 C 893.771 505.108, 891.716 503.322, 887.651 500.277 C 884.834 498.166, 866.154 480.684, 850.490 465.500 C 846.518 461.650, 841.097 456.700, 838.443 454.500 C 835.789 452.300, 831.791 448.882, 829.559 446.905 C 827.326 444.928, 824.411 442.453, 823.079 441.405 C 821.748 440.357, 819.671 438.488, 818.465 437.250 C 817.258 436.012, 815.908 435, 815.464 435 C 815.020 435, 813.947 434.383, 813.079 433.629 C 811.732 432.460, 811.080 432.519, 808.644 434.030 M 786.079 519.378 C 784.068 520.276, 783.950 520.942, 784.216 529.918 L 784.500 539.500 794 539.500 L 803.500 539.500 803.545 529.640 C 803.573 523.618, 803.183 519.654, 802.545 519.455 C 799.753 518.588, 787.973 518.533, 786.079 519.378 M 822.500 518.908 C 816.054 519.453, 815.506 519.678, 815.571 521.750 C 815.611 522.987, 815.723 527.569, 815.821 531.931 L 816 539.863 825.589 540.181 C 831.637 540.382, 835.508 540.100, 836.073 539.417 C 837.340 537.884, 835.978 519.003, 834.599 518.986 C 833.995 518.979, 832.600 518.825, 831.500 518.644 C 830.400 518.463, 826.350 518.582, 822.500 518.908 M 785.480 550.500 C 783.106 552.416, 783.013 552.920, 783.251 562.500 L 783.500 572.500 792.405 573.297 C 797.303 573.736, 801.915 573.863, 802.655 573.579 C 803.662 573.192, 803.997 570.481, 803.986 562.781 C 803.966 547.585, 804.250 548.062, 795.375 548.301 C 789.655 548.454, 787.390 548.958, 785.480 550.500 M 823.856 548.741 C 814.690 549.148, 814.833 548.893, 815.703 563.161 C 816.194 571.225, 816.591 573.011, 817.901 573.059 C 828.204 573.441, 835.330 573.414, 836.015 572.991 C 837.081 572.332, 837.566 553.254, 836.594 550.250 C 836.099 548.721, 835.166 548.064, 833.683 548.201 C 832.482 548.312, 828.060 548.555, 823.856 548.741 M 614.500 682.396 C 610.650 683.046, 606.375 684.294, 605 685.169 C 603.625 686.045, 601.186 687.068, 599.579 687.443 C 597.972 687.818, 595.549 688.996, 594.194 690.062 C 592.839 691.128, 590.907 692, 589.900 692 C 588.894 692, 587.589 692.900, 587 694 C 586.411 695.100, 585.383 696.006, 584.715 696.014 C 584.047 696.022, 581.025 698.469, 578 701.452 C 569.279 710.051, 568 711.496, 568 712.750 C 568 713.399, 567.152 714.384, 566.115 714.938 C 565.078 715.493, 563.925 717.161, 563.553 718.645 C 563.181 720.128, 562.004 722.451, 560.938 723.806 C 559.872 725.161, 558.998 727.222, 558.996 728.385 C 558.994 729.548, 558.083 731.991, 556.972 733.813 C 552.623 740.948, 552.247 775.184, 556.483 778.406 C 557.274 779.008, 558.405 781.699, 558.996 784.387 C 559.586 787.074, 560.954 790.397, 562.035 791.771 C 563.116 793.145, 564 795.113, 564 796.145 C 564 797.176, 564.900 798.790, 566 799.732 C 567.100 800.674, 568 802.140, 568 802.990 C 568 803.840, 569.125 806.191, 570.500 808.215 C 571.875 810.238, 573 812.566, 573 813.388 C 573 814.210, 573.501 815.192, 574.113 815.570 C 574.726 815.948, 576.097 818.225, 577.160 820.629 C 578.224 823.033, 579.474 825, 579.938 825 C 580.403 825, 581.468 826.713, 582.306 828.807 C 583.144 830.900, 584.543 833.205, 585.415 833.929 C 586.287 834.653, 587 835.687, 587 836.228 C 587 836.769, 588.125 838.548, 589.500 840.182 C 590.875 841.816, 592 843.724, 592 844.422 C 592 845.119, 592.900 846.505, 594 847.500 C 595.100 848.495, 596 849.703, 596 850.184 C 596 850.664, 598.250 853.957, 601 857.500 C 603.750 861.043, 606 864.160, 606 864.426 C 606 864.692, 607.156 866.167, 608.570 867.705 C 613.101 872.634, 613.710 873.441, 615.396 876.750 C 616.306 878.538, 617.459 880, 617.958 880 C 618.457 880, 619.185 881.013, 619.576 882.250 C 619.967 883.487, 621.087 885.063, 622.064 885.751 C 623.042 886.439, 624.145 888.382, 624.515 890.069 C 624.886 891.755, 625.794 893.367, 626.533 893.651 C 627.273 893.935, 628.175 895.520, 628.538 897.174 C 629.082 899.649, 629.579 900.079, 631.349 899.604 C 632.532 899.287, 633.787 899.021, 634.139 899.014 C 634.490 899.006, 635.075 897.415, 635.438 895.478 C 635.802 893.540, 636.977 891.407, 638.050 890.737 C 639.122 890.067, 640 888.952, 640 888.259 C 640 887.567, 640.876 886.124, 641.947 885.053 C 643.018 883.982, 644.604 881.732, 645.472 880.053 C 646.341 878.374, 647.481 877, 648.007 877 C 648.532 877, 649.247 875.863, 649.596 874.474 C 649.945 873.084, 651.078 871.493, 652.115 870.938 C 653.152 870.384, 654 869.430, 654 868.820 C 654 868.210, 654.914 866.763, 656.031 865.605 C 659.936 861.557, 664 856.227, 664 855.153 C 664 854.558, 664.848 853.616, 665.885 853.062 C 666.922 852.507, 668.055 850.916, 668.404 849.526 C 668.753 848.137, 669.470 847, 669.999 847 C 670.527 847, 671.878 845.200, 673 843 C 674.122 840.800, 675.451 839, 675.953 839 C 676.455 839, 677.185 837.987, 677.576 836.750 C 677.967 835.513, 679.122 833.912, 680.143 833.193 C 681.165 832.475, 682 831.272, 682 830.520 C 682 829.768, 683.125 827.816, 684.500 826.182 C 685.875 824.548, 687 822.891, 687 822.500 C 687 822.109, 688.125 820.452, 689.500 818.818 C 690.875 817.184, 692 815.267, 692 814.558 C 692 813.850, 692.872 812.161, 693.938 810.806 C 695.004 809.451, 696.173 807.159, 696.536 805.712 C 696.899 804.266, 697.802 802.579, 698.543 801.964 C 699.284 801.349, 700.397 798.406, 701.016 795.424 C 701.635 792.441, 702.897 789.245, 703.821 788.321 C 705.306 786.835, 705.500 783.670, 705.500 760.925 C 705.500 737.196, 705.355 735.049, 703.628 733.140 C 702.598 732.003, 701.358 728.943, 700.871 726.341 C 700.385 723.739, 699.455 721.281, 698.804 720.879 C 698.153 720.476, 696.918 718.823, 696.060 717.205 C 691.445 708.499, 689.943 706.192, 688.543 705.655 C 687.694 705.329, 687 704.446, 687 703.692 C 687 702.938, 685.875 701.808, 684.500 701.182 C 683.125 700.555, 682 699.358, 682 698.521 C 682 697.685, 681.394 697, 680.653 697 C 679.912 697, 678.225 696.043, 676.903 694.873 C 675.581 693.703, 673.038 692.122, 671.250 691.360 C 669.462 690.597, 668 689.550, 668 689.032 C 668 688.514, 666.421 687.794, 664.491 687.432 C 662.562 687.070, 659.974 685.999, 658.741 685.052 C 654.166 681.537, 628.669 680.006, 614.500 682.396 M 616.504 717.691 C 615.407 717.994, 613.434 719.087, 612.120 720.121 C 610.805 721.154, 609.213 722, 608.581 722 C 607.235 722, 598 732.718, 598 734.280 C 598 734.864, 597.371 736.053, 596.603 736.921 C 594.511 739.286, 591.584 750.816, 591.632 756.500 C 591.687 762.984, 594.795 774.984, 596.597 775.676 C 597.369 775.972, 598 776.868, 598 777.667 C 598 779.352, 607.783 790, 609.331 790 C 609.903 790, 611.342 790.912, 612.529 792.027 C 614.739 794.103, 623.752 796.312, 630 796.309 C 635.392 796.306, 646.300 794.033, 647.988 792.560 C 648.819 791.835, 650.850 790.555, 652.500 789.717 C 656.878 787.493, 664.791 779.688, 666.576 775.834 C 667.425 774, 668.761 771.375, 669.545 770 C 671.519 766.537, 671.531 746.493, 669.561 743 C 668.785 741.625, 667.242 738.587, 666.131 736.250 C 665.021 733.913, 663.626 732, 663.031 732 C 662.437 732, 661.523 730.875, 661 729.500 C 660.477 728.125, 659.379 727, 658.560 727 C 657.741 727, 656.622 726.162, 656.073 725.137 C 655.525 724.113, 653.597 722.671, 651.788 721.934 C 649.980 721.196, 647.974 719.897, 647.332 719.047 C 646.389 717.799, 643.492 717.465, 632.332 717.320 C 624.724 717.221, 617.602 717.388, 616.504 717.691 M 722.559 794 C 722.145 795.925, 720.998 798.907, 720.010 800.627 C 719.022 802.346, 717.913 805.122, 717.545 806.794 C 717.178 808.467, 716.005 810.841, 714.939 812.071 C 713.872 813.300, 713 815.050, 713 815.959 C 713 816.868, 711.875 819.136, 710.500 821 C 709.125 822.864, 708 825.201, 708 826.194 C 708 827.187, 707.100 828.900, 706 830 C 704.900 831.100, 704 832.612, 704 833.360 C 704 834.109, 702.875 836.379, 701.500 838.405 C 700.125 840.431, 699 842.718, 699 843.488 C 699 844.257, 698.132 845.495, 697.071 846.238 C 696.009 846.981, 694.833 848.817, 694.456 850.318 C 694.080 851.819, 692.987 853.599, 692.029 854.273 C 691.071 854.948, 689.967 856.513, 689.576 857.750 C 689.185 858.987, 688.455 860, 687.953 860 C 687.451 860, 686.019 861.839, 684.770 864.086 C 683.522 866.333, 681.825 869.371, 680.999 870.837 C 680.173 872.303, 678.486 874.514, 677.249 875.751 C 676.012 876.988, 675 878.432, 675 878.960 C 675 880.977, 680.412 884.810, 684.092 885.399 C 686.368 885.763, 688.347 886.780, 688.942 887.892 C 689.495 888.925, 691.069 890.052, 692.441 890.396 C 694.602 890.938, 707.298 902.722, 713.614 910.048 C 717.301 914.323, 722.116 918.128, 723.329 917.724 C 724.671 917.276, 725.371 797.971, 724.059 793.210 L 723.312 790.500 722.559 794 M 662 897.921 C 662 898.427, 663.462 899.154, 665.250 899.537 C 667.038 899.920, 669.305 901.081, 670.289 902.116 C 671.273 903.152, 672.712 904, 673.488 904 C 675.009 904, 680 909.976, 680 911.796 C 680 912.406, 677.936 914.324, 675.414 916.059 C 671.958 918.437, 669.061 919.450, 663.664 920.168 C 659.724 920.693, 654.250 921.580, 651.500 922.140 C 640.605 924.358, 600.186 920.914, 590.500 916.943 C 580.199 912.719, 580.517 913.139, 584.768 909.382 C 588.363 906.204, 591.101 904.940, 597.486 903.512 C 600.175 902.910, 600.286 902.740, 598.606 901.799 C 596.164 900.433, 586.078 901.619, 583.977 903.521 C 583.093 904.321, 580.824 905.495, 578.935 906.131 C 573.872 907.834, 570.998 911.696, 572.209 915.170 C 572.736 916.682, 574.030 918.192, 575.084 918.527 C 576.138 918.861, 577 919.511, 577 919.972 C 577 921.353, 587.173 926.656, 592 927.791 C 594.475 928.373, 598.330 929.528, 600.568 930.357 C 609.948 933.833, 666.501 933.305, 672.111 929.688 C 673.425 928.841, 676.262 927.826, 678.415 927.432 C 680.569 927.038, 683.894 925.654, 685.805 924.358 C 687.716 923.061, 689.554 921.997, 689.890 921.994 C 690.766 921.985, 694 916.089, 694 914.500 C 694 910.285, 686.127 903.092, 679.273 901.046 C 677.748 900.590, 675.150 899.496, 673.500 898.615 C 670.284 896.897, 662 896.397, 662 897.921" stroke="none" fill="#3DFF00" fill-rule="evenodd"/>
</svg>